<?xml version="1.0" encoding="utf-8"?>
<!-- Uploaded to: SVG Repo, www.svgrepo.com, Generator: SVG Repo Mixer Tools -->
<svg fill="#000000" version="1.1" id="Layer_1" xmlns="http://www.w3.org/2000/svg" xmlns:xlink="http://www.w3.org/1999/xlink" 
	 width="800px" height="800px" viewBox="0 0 256 256" enable-background="new 0 0 256 256" xml:space="preserve">
<path d="M215.284,237.206c-0.611,8.092-7.634,14.046-15.725,13.435c-2.595-0.153-4.428-1.069-6.718-2.137
	c0,0-41.527-28.244-43.97-30.229c-4.122-3.511-8.244-7.634-10.076-13.588c-0.611-2.137-9.008-30.687-9.008-30.687L126.017,254
	H41.746l2.036-32.214H23.832C11.771,221.786,2,212.015,2,199.954c0-2.901,0.458-5.649,1.527-8.092c0,0,22.596-50.687,26.871-58.932
	c6.26-12.367,17.252-17.71,32.672-17.252h40.764L18.489,176.9l-7.634,17.863c-0.763,1.527-1.069,3.359-1.069,5.191
	c0,7.634,6.26,13.893,13.893,13.893h70.993c12.061,0,21.832-9.771,21.832-21.832c0-10.687-7.634-19.695-17.71-21.527l20.763-55.115
	h4.886c11.45,0,20.458,7.786,23.054,16.641l16.336,58.932c0.305,0.916,1.374,2.748,2.748,3.817
	c1.679,1.221,43.054,29.619,43.054,29.619C213.452,227.282,215.742,232.015,215.284,237.206z M89.94,105.602
	c17.863,1.374,33.435-11.908,34.809-29.771c1.374-17.863-11.908-33.435-29.771-34.809S61.542,52.93,60.168,70.792
	C58.794,88.655,72.077,104.228,89.94,105.602z M108.566,191.862c0-7.176-5.496-12.977-12.367-13.741l-10.076,27.787l8.55-0.153
	C102.306,205.755,108.566,199.496,108.566,191.862z M254,2v102.106h-96.333V2H254z M244.86,95.206V10.9h-78.013v84.307H244.86
	L244.86,95.206z M202.005,75.202h32.592v-9.18h-32.592V75.202z M176.989,31.064h57.728v-9.341h-57.728V31.064z M176.989,48.222
	h57.728v-9.341h-57.728V48.222z M193.145,75.122c0,3.367-2.285,6.093-5.693,6.935v3.889h-4.289v-3.648
	c-1.924-0.241-3.808-0.882-5.051-1.724l-0.641-0.481l1.563-4.37l1.082,0.682c1.323,0.922,2.967,1.403,4.61,1.403
	c1.964,0,3.287-1.002,3.287-2.486c0-1.002-0.361-2.085-3.408-3.327c-3.207-1.283-6.534-3.127-6.534-7.176
	c0-3.287,2.125-5.773,5.452-6.615v-3.808h4.33v3.568c1.644,0.16,2.967,0.641,4.209,1.323l0.682,0.481l-1.644,4.289l-1.002-0.641
	c-0.641-0.321-1.964-1.082-4.049-1.082c-2.125,0-2.806,1.082-2.806,2.085c0,1.122,0.521,1.884,3.808,3.207
	C189.898,68.788,193.185,70.752,193.145,75.122z"/>
</svg>