<?xml version="1.0" encoding="utf-8"?>
<!-- Uploaded to: SVG Repo, www.svgrepo.com, Generator: SVG Repo Mixer Tools -->
<svg fill="#000000" height="800px" width="800px" version="1.1" id="Layer_1" xmlns="http://www.w3.org/2000/svg" xmlns:xlink="http://www.w3.org/1999/xlink" 
	 viewBox="0 0 128 128" xml:space="preserve">
<g>
	<path d="M28.6,51.3v-8.6h1.8c3.8,0,5-2,5-5.3V14.6c0-2.8-2.4-4.7-5.5-4.7H8v32l16.1,12.7C26.3,56.1,28.6,54.2,28.6,51.3z
		 M30.1,13.3c0.9,0,2.1,0.6,2.1,1.8v22.6c0,1.1-0.8,1.8-1.8,1.8h-1.8V26.4c0-1.4-0.3-2.9-2.3-4.4l-12.3-8.7H30.1z"/>
	<path d="M97.4,47.5H60.2c-4.8,0-8,2.1-10.9,5.6l-12,16l-17-13.5c-7.9-5.8-16.8,5.5-9.1,11.4l22.3,17.6c4.8,3.4,8.6,1.9,10.7-0.2
		l16.4-21.9v33.6L97.4,47.5z"/>
	<polygon points="98.9,14.9 98.9,3.7 58.7,3.7 66.4,14.9 	"/>
	<path d="M60.2,26.6h7.6c0,9.1,7.1,15.4,15.4,15.4c8,0,15.7-6.4,15.7-15.7v-7.9H66.7L60.2,26.6z"/>
	<path d="M106.6,47.7L69.2,97.9h32.5v8h-41v17.3h56.3V59.2C117.1,49.8,110.9,47.7,106.6,47.7z"/>
</g>
</svg>