<?xml version="1.0" encoding="utf-8"?>
<!-- Uploaded to: SVG Repo, www.svgrepo.com, Generator: SVG Repo Mixer Tools -->
<svg fill="#000000" version="1.1" id="Layer_1" xmlns="http://www.w3.org/2000/svg" xmlns:xlink="http://www.w3.org/1999/xlink" 
	 width="800px" height="800px" viewBox="0 0 256 215" enable-background="new 0 0 256 215" xml:space="preserve">
<path d="M54.216,31.742c0-16.235,12.988-29.327,29.327-29.327c16.235,0,29.327,13.092,29.327,29.327
	c-0.105,16.339-13.197,29.326-29.327,29.326C67.308,61.069,54.216,47.977,54.216,31.742z M215.981,157.523h-53.212v-47.551
	c0-23.166-20.244-41.89-43.023-41.89H48.419c-25.008,0-46.431,21.67-46.419,43.023v87.177C1.971,207.943,8.794,212.988,15.586,213
	c6.809,0.012,13.586-5.033,13.586-14.718v-84.913h9.057v99.499h88.31v-99.499h9.057l0.092,57.027
	c-0.061,9.882,6.048,14.091,12.362,14.3h67.93C234.506,184.696,234.506,157.523,215.981,157.523z M215.183,64.279v7.118h-5.571
	C210.983,67.727,212.928,65.119,215.183,64.279z M208.684,91.292h6.499l0,0V84.35h-7.427
	C207.844,86.826,208.154,89.169,208.684,91.292z M201.699,94.254c1.989,2.608,4.686,4.731,7.781,6.013
	c-1.194-1.636-2.211-3.669-2.962-6.013H201.699z M207.712,81.388h7.472l0,0v-7.029h-6.499
	C208.154,76.525,207.844,78.913,207.712,81.388z M215.183,101.416v-7.118h-5.571C210.983,97.923,212.928,100.576,215.183,101.416z
	 M204.794,84.35h-6.897c0.177,2.476,0.884,4.819,1.945,6.941h5.836C205.192,89.169,204.882,86.826,204.794,84.35z M209.347,65.517
	c-3.006,1.282-5.659,3.316-7.604,5.88h4.731C207.225,69.142,208.198,67.153,209.347,65.517z M205.678,74.359h-5.792
	c-1.105,2.122-1.768,4.509-1.989,7.029h6.897C204.882,78.913,205.192,76.525,205.678,74.359z M254,43.942v101.065h-77.324V41.82
	l69.808-8.356v10.478H254z M241.135,39.477l-37.137,4.465h37.137V39.477z M239.499,82.847c0-12.6-10.213-22.857-22.857-22.857
	c-12.6,0-22.857,10.213-22.857,22.857c0,12.6,10.213,22.857,22.857,22.857C229.286,105.66,239.499,95.447,239.499,82.847z
	 M193.83,117.818v9.107h45.669v-9.107H193.83z M218.145,101.416c2.255-0.796,4.244-3.448,5.615-7.118h-5.615V101.416z
	 M223.893,100.266c3.095-1.282,5.747-3.36,7.781-6.013h-4.775C226.103,96.597,225.086,98.63,223.893,100.266z M227.651,91.292h5.836
	c1.061-2.122,1.724-4.465,1.945-6.941h-6.897C228.446,86.826,228.137,89.169,227.651,91.292z M225.617,84.35h-7.472v6.941h6.499
	C225.175,89.169,225.484,86.826,225.617,84.35z M224.644,74.359h-6.499v7.029h7.472C225.484,78.913,225.175,76.525,224.644,74.359z
	 M228.535,81.388h6.897c-0.177-2.52-0.884-4.907-1.989-7.029h-5.792C228.181,76.525,228.446,78.913,228.535,81.388z M231.585,71.441
	c-1.989-2.564-4.598-4.598-7.604-5.88c1.149,1.636,2.122,3.625,2.874,5.88H231.585z M218.145,64.279v7.118h5.615
	C222.39,67.727,220.4,65.119,218.145,64.279z"/>
</svg>