<?xml version="1.0" encoding="UTF-8" standalone="no"?>
<!DOCTYPE svg PUBLIC "-//W3C//DTD SVG 1.1//EN" "http://www.w3.org/Graphics/SVG/1.1/DTD/svg11.dtd">
<!-- Created with Vectornator (http://vectornator.io/) -->
<svg height="100%" stroke-miterlimit="10" style="fill-rule:nonzero;clip-rule:evenodd;stroke-linecap:round;stroke-linejoin:round;" version="1.1" viewBox="0 0 595.35 419.58" width="100%" xml:space="preserve" xmlns="http://www.w3.org/2000/svg" xmlns:vectornator="http://vectornator.io" xmlns:xlink="http://www.w3.org/1999/xlink">
<defs/>
<g id="Слой-1" vectornator:layerName="Слой 1">
<path d="M239.433 199.335C239.855 199.335 240.218 199.167 240.523 198.832C240.827 198.496 241.089 198.046 241.308 197.484L248.984 177.433C249.085 177.16 249.165 176.906 249.224 176.671C249.282 176.437 249.312 176.218 249.312 176.015C249.312 175.632 249.202 175.332 248.984 175.113C248.765 174.894 248.464 174.785 248.081 174.785C247.886 174.785 247.669 174.814 247.431 174.873C247.193 174.931 246.937 175.011 246.663 175.113L226.507 182.835C226.015 183.023 225.601 183.269 225.265 183.574C224.929 183.878 224.761 184.242 224.761 184.664C224.761 185.203 224.945 185.591 225.312 185.83C225.679 186.068 226.144 186.273 226.706 186.445L235.167 188.929L237.628 197.285C237.8 197.871 238.007 198.359 238.249 198.75C238.491 199.14 238.886 199.335 239.433 199.335ZM235.695 187.148L227.609 184.675C227.515 184.652 227.45 184.625 227.415 184.593C227.38 184.562 227.363 184.527 227.363 184.488C227.363 184.449 227.378 184.412 227.409 184.376C227.441 184.341 227.499 184.308 227.585 184.277L243.429 178.277C243.898 178.097 244.357 177.9 244.806 177.685C245.255 177.47 245.698 177.261 246.136 177.058C245.745 177.371 245.331 177.707 244.894 178.066C244.456 178.425 244.077 178.765 243.757 179.085L235.695 187.148ZM239.62 196.757C239.573 196.757 239.536 196.736 239.509 196.693C239.482 196.65 239.452 196.582 239.421 196.488L236.948 188.402L245.011 180.339C245.331 180.019 245.673 179.636 246.036 179.191C246.4 178.746 246.737 178.324 247.05 177.925C246.847 178.371 246.636 178.82 246.417 179.273C246.198 179.726 245.999 180.191 245.82 180.667L239.82 196.511C239.788 196.597 239.757 196.66 239.726 196.699C239.695 196.738 239.659 196.757 239.62 196.757Z" fill="#301d66" opacity="1" stroke="none" vectornator:layerName="Текст 1"/>
</g>
</svg>
