<?xml version="1.0" encoding="utf-8"?>
<!-- Uploaded to: SVG Repo, www.svgrepo.com, Generator: SVG Repo Mixer Tools -->
<svg fill="#000000" height="800px" width="800px" version="1.2" baseProfile="tiny" id="Layer_1" xmlns="http://www.w3.org/2000/svg" xmlns:xlink="http://www.w3.org/1999/xlink"
	  viewBox="0 0 256 256" xml:space="preserve">
<path id="XMLID_7_" d="M123.5,127c2.7-2.5,6-3.9,9.4-3.9H251v15.8H136.9c-3.9,0-6,2.2-7.2,3.3c-5,4.7-38.5,35.5-38.5,35.5l-10.1-9.9
	C81.1,167.9,118.8,131.4,123.5,127 M191.1,41.1c13.4,0,20.7-9.3,20.7-20.7c0-11.4-9.3-20.7-20.7-20.7c-11.4,0-20.7,9.3-20.7,20.7
	C170.4,31.8,179.7,41.1,191.1,41.1 M160.4,76.6h6.9l-10.2,36.5H225l-10.2-36.5h6.9l10.5,36.5h17.9l-14.4-48.4
	c-1.9-6.7-10.4-18.5-25-18.5h-39.4c-14.6,0-23.1,11.9-25,18.5L132,113.1h17.9L160.4,76.6z M101.8,111.2L93,94.8l-9.4-17.6
	c0,0-1.1-1.6-3.1-0.7c-1.8,0.9-1,2.9-1,2.9l6,11.5l3.8,7.2l-4.3-2c-7.7-3.5-11.9-4.9-13.6-5.7c-0.3-0.1-1.8-1-2.5-2.5
	c-2-4.5-10.6-26.2-12.5-31c-1.6-4.1-5.6-9.8-13.9-11.9c-9.4-2.3-18.9,3.6-21.1,13L8.6,112.2c-1.1,4.4-3.1,16.2-3.1,21.1
	c0,5,0.1,105.6,0.1,105.6C5.6,247.9,12,255,20.9,255c8.9,0,15-7.3,14.9-16.2c0,0,0-57.5,0-89.5l13.7-57.7c1.6,3.9,3.6,8.7,4.2,9.8
	c1.6,2.7,3.1,4.6,6.2,6c0,0,17.9,7.4,24.8,10.6c4.2,1.6,8.7,0.2,11.3-3.1l1-2l0.3,0.6c0,0,2,3.6,5.1,3.8
	C103.3,114.5,101.8,111.2,101.8,111.2 M74.1,20.2c0-11.4-9.3-20.7-20.7-20.7C42-0.4,32.8,8.8,32.8,20.2c0,11.4,9.3,20.7,20.7,20.7
	C64.9,40.9,74.1,31.7,74.1,20.2 M83.4,155.2l40.3-37.5l-5.2-5.6l-40.3,37.5L83.4,155.2z"/>
</svg>