<?xml version="1.0" encoding="utf-8"?>
<!-- Uploaded to: SVG Repo, www.svgrepo.com, Generator: SVG Repo Mixer Tools -->
<svg fill="#000000" version="1.1" id="Layer_1" xmlns="http://www.w3.org/2000/svg" xmlns:xlink="http://www.w3.org/1999/xlink" 
	 width="800px" height="800px" viewBox="0 0 256 240" enable-background="new 0 0 256 240" xml:space="preserve">
<path d="M84.635,20.256c18.383,0,33.286,14.903,33.286,33.286s-14.903,33.286-33.286,33.286S51.349,71.925,51.349,53.542
	S66.251,20.256,84.635,20.256z M31.002,145.011c0-2.499,1.606-4.194,4.194-4.194s4.194,1.606,4.194,4.194v92.986h91.469v-92.986
	c0-2.499,1.606-4.194,4.194-4.194c2.499,0,4.194,1.606,4.194,4.194v92.986h29.092V136.623c0-22.934-18.74-41.585-41.585-41.585
	h-8.388l-24.451,38.015l-2.945-28.467l4.016-9.638H76.96l4.016,9.638l-3.123,28.645L53.401,95.038h-9.816
	C20.651,95.038,2,113.778,2,136.623v101.375h29.092v-92.986H31.002z M211.717,38.134h5.306v-6.78
	C214.875,32.154,213.022,34.639,211.717,38.134z M209.948,50.474h7.075v6.612l0,0h-6.191
	C210.327,55.064,210.032,52.832,209.948,50.474z M208.769,59.908c0.716,2.232,1.685,4.169,2.822,5.728
	c-2.948-1.221-5.517-3.243-7.412-5.728H208.769z M210.832,40.956h6.191v6.696l0,0h-7.117
	C210.032,45.294,210.327,43.02,210.832,40.956z M211.717,59.95h5.306v6.78C214.875,65.93,213.022,63.403,211.717,59.95z
	 M207.969,57.086h-5.559c-1.011-2.021-1.685-4.254-1.853-6.612h6.57C207.211,52.832,207.505,55.064,207.969,57.086z M208.727,38.134
	h-4.506c1.853-2.443,4.38-4.38,7.244-5.601C210.369,34.091,209.443,35.987,208.727,38.134z M207.126,47.652h-6.57
	c0.211-2.401,0.842-4.675,1.895-6.696h5.517C207.505,43.02,207.211,45.294,207.126,47.652z M246.841,11.981V2l-66.499,7.96v98.296
	H254V11.981H246.841z M241.745,11.981h-35.376l35.376-4.254V11.981z M218.413,70.815c-12.045,0-21.773-9.771-21.773-21.773
	c0-12.045,9.771-21.773,21.773-21.773c12.045,0,21.773,9.771,21.773,21.773S230.458,70.773,218.413,70.815z M240.186,82.355v8.676
	h-43.504v-8.676H240.186z M219.845,59.95h5.349c-1.306,3.496-3.201,6.022-5.349,6.78V59.95z M228.184,59.908h4.548
	c-1.937,2.527-4.464,4.506-7.412,5.728C226.457,64.077,227.426,62.14,228.184,59.908z M229.742,50.474h6.57
	c-0.211,2.358-0.842,4.59-1.853,6.612H228.9C229.363,55.064,229.658,52.832,229.742,50.474z M226.036,57.086h-6.191v-6.612h7.117
	C226.836,52.832,226.541,55.064,226.036,57.086z M226.962,47.652h-7.117v-6.696h6.191C226.541,43.02,226.836,45.294,226.962,47.652z
	 M228.9,40.956h5.517c1.053,2.022,1.727,4.296,1.895,6.696h-6.57C229.658,45.294,229.405,43.02,228.9,40.956z M228.142,38.176
	c-0.716-2.148-1.642-4.043-2.737-5.601c2.864,1.221,5.349,3.159,7.244,5.601H228.142z M225.194,38.134h-5.349v-6.78
	C221.993,32.154,223.888,34.639,225.194,38.134z"/>
</svg>