<?xml version="1.0" encoding="utf-8"?>
<!-- Uploaded to: SVG Repo, www.svgrepo.com, Generator: SVG Repo Mixer Tools -->
<svg fill="#000000" version="1.1" id="Layer_1" xmlns="http://www.w3.org/2000/svg" xmlns:xlink="http://www.w3.org/1999/xlink" 
	 width="800px" height="800px" viewBox="0 0 236 256" enable-background="new 0 0 236 256" xml:space="preserve">
<path d="M81,113H61V81c0-15.587,12.413-29,28-29h57c15.486,0,28,13.514,28,29v32h-20V86c0-1.71-1.291-3-3-3s-3,1.29-3,3v27H87V86
	c0-1.71-1.291-3-3-3s-3,1.29-3,3V113z M139.394,182.959c0,11.157-9.043,20.2-20.239,20.239c-11.196,0-20.239-9.082-20.239-20.239
	c0-11.196,9.082-20.239,20.239-20.239C130.351,162.72,139.394,171.802,139.394,182.959z M105.962,172.82h4.189
	c0.665-1.997,1.527-3.758,2.545-5.207C110.033,168.748,107.685,170.549,105.962,172.82z M102.556,181.667h6.107
	c0.078-2.192,0.352-4.306,0.783-6.224h-5.128C103.339,177.322,102.752,179.436,102.556,181.667z M109.446,190.436
	c-0.431-1.879-0.705-3.954-0.783-6.146h-6.107c0.157,2.192,0.783,4.267,1.722,6.146H109.446z M112.813,198.383
	c-1.057-1.448-1.957-3.249-2.623-5.324h-4.267C107.685,195.369,110.073,197.248,112.813,198.383z M117.863,193.098h-4.933
	c1.214,3.21,2.936,5.559,4.933,6.303V193.098z M117.863,184.29h-6.577c0.078,2.192,0.352,4.267,0.822,6.146h5.755V184.29z
	 M117.863,175.443h-5.755c-0.47,1.918-0.744,4.032-0.861,6.224h6.616V175.443z M117.863,166.517
	c-1.997,0.744-3.719,3.053-4.933,6.303h4.933V166.517z M125.653,167.652c1.018,1.448,1.879,3.21,2.545,5.207h4.189
	C130.625,170.588,128.315,168.788,125.653,167.652z M120.486,172.82h4.972c-1.214-3.249-2.975-5.559-4.972-6.303V172.82z
	 M120.486,181.667h6.616c-0.117-2.192-0.392-4.306-0.861-6.224h-5.755V181.667z M120.486,190.436h5.755
	c0.47-1.879,0.744-3.954,0.861-6.146h-6.616V190.436z M125.458,193.098h-4.972v6.303
	C122.482,198.696,124.244,196.347,125.458,193.098z M132.465,193.059h-4.228c-0.705,2.075-1.605,3.876-2.662,5.324
	C128.315,197.248,130.664,195.408,132.465,193.059z M135.792,184.29h-6.107c-0.078,2.192-0.352,4.267-0.783,6.146h5.167
	C135.01,188.557,135.597,186.482,135.792,184.29z M134.031,175.443h-5.128c0.47,1.918,0.705,4.032,0.783,6.224h6.107
	C135.636,179.436,135.01,177.322,134.031,175.443z M98.955,221.989h40.439v-8.064H98.955V221.989z M234,118v27h-24v109H25V145H2v-27
	H234z M152.234,148.509h-6.655v-9.278l-61.813,7.399V238h68.469V148.509z M140.842,148.509v-3.954l-32.884,3.954H140.842z
	 M117.497,47.251c12.369,0,22.626-10.156,22.626-22.626C140.123,12.156,129.967,2,117.497,2c-12.469,0-22.626,10.156-22.626,22.626
	C94.872,37.095,104.927,47.251,117.497,47.251z"/>
</svg>